<svg xmlns="http://www.w3.org/2000/svg" viewBox="0 0 31.29 22.05"><defs><style>.cls-1,.cls-2{fill:#e51d36;}.cls-1{stroke:#e51e37;stroke-miterlimit:10;stroke-width:0.28px;}</style></defs><title>Рыбка</title><g id="Layer_2" data-name="Layer 2"><g id="Layer_1-2" data-name="Layer 1"><polygon class="cls-1" points="27.79 15.09 30.97 13.22 27.79 11.36 27.79 15.09"/><polygon class="cls-1" points="23.85 17.39 27.02 15.55 23.85 13.72 23.85 17.39"/><polygon class="cls-2" points="27.24 11.42 24.06 13.26 27.24 15.09 27.24 11.42"/><polygon class="cls-1" points="23.86 9.13 23.86 12.8 27.09 10.96 23.86 9.13"/><path class="cls-2" d="M23.72,11.22H27.3v4.09H23.72c0-.7,0-1.42,0-2.15S23.71,11.85,23.72,11.22Z"/><path class="cls-2" d="M25.41,15l3.46-2,.71,1.25c-.74.45-1.5.91-2.27,1.35l-1.19.69Z"/><path class="cls-2" d="M24.87,11.2l.68-1.27c.83.42,1.42.78,1.82,1l1,.62.74.44-.8,1.24Z"/><rect class="cls-2" x="26.41" y="12.04" width="2.21" height="2.28"/><path class="cls-2" d="M23.72,8.9c1.47.8,2.63,1.46,3.43,1.92l2.61,1.52.66.39.53.32.28.16"/><polygon class="cls-2" points="30.83 12.98 30.18 12.59 31.27 13.2 30.83 12.98"/><polygon class="cls-2" points="31.29 12.86 31.29 9.19 28.11 11.02 31.29 12.86"/><polygon class="cls-2" points="31.02 8.73 27.84 6.89 27.84 10.56 31.02 8.73"/><polygon class="cls-2" points="23.35 13.78 20.17 15.62 23.35 17.45 23.35 13.78"/><path class="cls-2" d="M20.17,11l3.18,1.84V9.19Z"/><polygon class="cls-2" points="23.35 8.27 23.35 4.59 20.17 6.43 23.35 8.27"/><polygon class="cls-2" points="23.08 4.13 19.89 2.3 19.89 5.97 23.08 4.13"/><polygon class="cls-2" points="19.89 6.89 19.89 10.56 23.08 8.73 19.89 6.89"/><polygon class="cls-2" points="23.08 13.32 19.89 11.48 19.89 15.16 23.08 13.32"/><polygon class="cls-2" points="19.89 19.75 23.08 17.91 19.89 16.07 19.89 19.75"/><polygon class="cls-2" points="19.34 16.07 16.16 17.91 19.34 19.75 19.34 16.07"/><polygon class="cls-2" points="16.16 13.32 19.34 15.16 19.34 11.48 16.16 13.32"/><polygon class="cls-2" points="16.16 8.73 19.34 10.56 19.34 6.89 16.16 8.73"/><polygon class="cls-2" points="19.34 5.97 19.34 2.3 16.16 4.13 19.34 5.97"/><polygon class="cls-2" points="15.96 4.59 15.96 8.27 19.14 6.43 15.96 4.59"/><polygon class="cls-2" points="15.96 9.19 15.96 12.86 19.14 11.02 15.96 9.19"/><polygon class="cls-2" points="19.14 15.62 15.96 13.78 15.96 17.45 19.14 15.62"/><polygon class="cls-2" points="27.08 6.43 23.9 4.59 23.9 8.27 27.08 6.43"/><polygon class="cls-2" points="15.4 13.78 12.22 15.62 15.4 17.45 15.4 13.78"/><polygon class="cls-2" points="15.4 12.86 15.4 9.19 12.22 11.02 15.4 12.86"/><polygon class="cls-2" points="12.22 6.43 15.4 8.27 15.4 4.59 12.22 6.43"/><polygon class="cls-2" points="11.95 6.89 11.95 10.56 15.13 8.73 11.95 6.89"/><polygon class="cls-2" points="15.13 13.32 11.95 11.48 11.95 15.16 15.13 13.32"/><polygon class="cls-2" points="11.4 15.16 11.4 11.48 8.22 13.32 11.4 15.16"/><polygon class="cls-2" points="11.4 10.56 11.4 6.89 8.22 8.73 11.4 10.56"/><polygon class="cls-2" points="11.13 6.43 7.94 4.59 7.94 8.27 11.13 6.43"/><polygon class="cls-2" points="11.13 11.02 7.94 9.19 7.94 12.86 11.13 11.02"/><polygon class="cls-2" points="7.94 13.78 7.94 17.45 11.13 15.62 7.94 13.78"/><polygon class="cls-2" points="7.46 17.45 7.46 13.78 4.28 15.62 7.46 17.45"/><polygon class="cls-2" points="4.28 6.43 7.46 8.27 7.46 4.59 4.28 6.43"/><polygon class="cls-2" points="7.19 4.13 4.01 2.3 4.01 5.97 7.19 4.13"/><polygon class="cls-2" points="4.01 6.89 4.01 10.56 7.19 8.73 4.01 6.89"/><polygon class="cls-2" points="7.19 13.32 4.01 11.48 4.01 15.16 7.19 13.32"/><polygon class="cls-2" points="7.19 17.91 4.01 16.07 4.01 19.75 7.19 17.91"/><polygon class="cls-2" points="3.45 16.07 0.27 17.91 3.45 19.75 3.45 16.07"/><polygon class="cls-2" points="3.45 2.3 0.27 4.13 3.45 5.97 3.45 2.3"/><polygon class="cls-2" points="0 0 0 3.67 3.18 1.84 0 0"/><polygon class="cls-2" points="7.39 12.86 7.42 9.19 4.23 11 7.39 12.86"/><polygon class="cls-2" points="3.18 20.21 0 18.37 0 22.05 3.18 20.21"/><path class="cls-2" d="M30.49,12.77c.28.12.51.27.5.42s-.16.2-.14.22.27-.11.4-.19l0,0"/></g></g></svg>